G04*
G04 #@! TF.GenerationSoftware,Altium Limited,Altium Designer,23.1.1 (15)*
G04*
G04 Layer_Physical_Order=2*
G04 Layer_Color=16711680*
%FSLAX25Y25*%
%MOIN*%
G70*
G04*
G04 #@! TF.SameCoordinates,AEBC9281-2821-4F30-AFEC-906A69E31226*
G04*
G04*
G04 #@! TF.FilePolarity,Positive*
G04*
G01*
G75*
%ADD13C,0.00800*%
%ADD14C,0.01000*%
%ADD25R,0.05906X0.05906*%
%ADD26C,0.05906*%
%ADD27C,0.16500*%
%ADD28C,0.04724*%
%ADD29R,0.04724X0.04724*%
%ADD30C,0.05512*%
%ADD31O,0.07874X0.03937*%
%ADD32O,0.07874X0.03937*%
%ADD33R,0.04449X0.04449*%
%ADD34C,0.04449*%
D13*
X246150Y208500D02*
G03*
X246150Y208500I-9650J0D01*
G01*
X221837Y143500D02*
G03*
X220726Y146000I-3368J0D01*
G01*
Y151000D02*
G03*
X221837Y153500I-2258J2500D01*
G01*
X221837Y148500D02*
G03*
X220726Y151000I-3368J0D01*
G01*
Y146000D02*
G03*
X221837Y148500I-2258J2500D01*
G01*
X242353Y98500D02*
G03*
X233887Y97074I-4353J0D01*
G01*
X236574Y94387D02*
G03*
X242353Y98500I1426J4113D01*
G01*
X218468Y140131D02*
G03*
X221837Y143500I0J3368D01*
G01*
X218400Y157000D02*
G03*
X217841Y158346I-1900J0D01*
G01*
X218400Y157000D02*
G03*
X217844Y158344I-1900J0D01*
G01*
X214846Y161341D02*
G03*
X213500Y161900I-1346J-1341D01*
G01*
X214844Y161344D02*
G03*
X213500Y161900I-1343J-1343D01*
G01*
X221837Y153500D02*
G03*
X218468Y156869I-3368J0D01*
G01*
X213988Y156825D02*
G03*
X212274Y151000I543J-3325D01*
G01*
Y146000D02*
G03*
X214531Y140131I2258J-2500D01*
G01*
X214659Y77846D02*
G03*
X214100Y76500I1341J-1346D01*
G01*
X214656Y77843D02*
G03*
X214100Y76500I1343J-1343D01*
G01*
X178046Y174641D02*
G03*
X176700Y175200I-1346J-1341D01*
G01*
X178043Y174644D02*
G03*
X176700Y175200I-1343J-1343D01*
G01*
X193696Y161900D02*
G03*
X188730Y163957I-3696J-1900D01*
G01*
X186043Y161270D02*
G03*
X193696Y158100I3957J-1270D01*
G01*
X212274Y151000D02*
G03*
X211750Y150400I2258J-2500D01*
G01*
X208500D02*
G03*
X207156Y149844I0J-1900D01*
G01*
X211750Y146600D02*
G03*
X212274Y146000I2781J1900D01*
G01*
X208500Y150400D02*
G03*
X207154Y149841I0J-1900D01*
G01*
X165944Y134743D02*
G03*
X164600Y135300I-1343J-1343D01*
G01*
X165946Y134741D02*
G03*
X164600Y135300I-1346J-1341D01*
G01*
X194156Y130000D02*
G03*
X193957Y131270I-4156J0D01*
G01*
X191270Y133957D02*
G03*
X194156Y130000I-1270J-3957D01*
G01*
X190262Y100000D02*
G03*
X190262Y100000I-3762J0D01*
G01*
X162262Y129500D02*
G03*
X161687Y131500I-3762J0D01*
G01*
X152400Y135300D02*
G03*
X151054Y134741I0J-1900D01*
G01*
X155313Y131500D02*
G03*
X162262Y129500I3187J-2000D01*
G01*
X152400Y135300D02*
G03*
X151057Y134743I0J-1900D01*
G01*
X152262Y129500D02*
G03*
X152140Y130453I-3762J0D01*
G01*
X149453Y133140D02*
G03*
X145253Y131400I-953J-3640D01*
G01*
Y127600D02*
G03*
X152262Y129500I3247J1900D01*
G01*
X160262Y100000D02*
G03*
X153253Y101900I-3762J0D01*
G01*
X152500D02*
G03*
X151156Y101344I0J-1900D01*
G01*
X152500Y101900D02*
G03*
X151154Y101341I0J-1900D01*
G01*
X153266Y98079D02*
G03*
X160262Y100000I3235J1922D01*
G01*
X140656Y84000D02*
G03*
X140457Y85270I-4156J0D01*
G01*
X137770Y87957D02*
G03*
X140656Y84000I-1270J-3957D01*
G01*
X220353Y40500D02*
G03*
X217900Y44416I-4353J0D01*
G01*
X214100D02*
G03*
X212084Y42400I1900J-3916D01*
G01*
X245650Y12500D02*
G03*
X245650Y12500I-9650J0D01*
G01*
X212084Y38600D02*
G03*
X220353Y40500I3916J1900D01*
G01*
X192857Y42734D02*
G03*
X189969Y44368I-2888J-1734D01*
G01*
X186031D02*
G03*
X183250Y42900I0J-3368D01*
G01*
X162457Y53230D02*
G03*
X162656Y54500I-3957J1270D01*
G01*
D02*
G03*
X154587Y55900I-4156J0D01*
G01*
X155107Y52100D02*
G03*
X159770Y50543I3393J2400D01*
G01*
X170657Y39656D02*
G03*
X172000Y39100I1343J1343D01*
G01*
X170654Y39659D02*
G03*
X172000Y39100I1346J1341D01*
G01*
X135230Y50043D02*
G03*
X140196Y52100I1270J3957D01*
G01*
Y55900D02*
G03*
X132543Y52730I-3696J-1900D01*
G01*
X193337Y36000D02*
G03*
X192226Y38500I-3368J0D01*
G01*
D02*
G03*
X192633Y38939I-2258J2500D01*
G01*
X193032Y32400D02*
G03*
X192226Y33500I-3064J-1400D01*
G01*
D02*
G03*
X193337Y36000I-2258J2500D01*
G01*
X183774Y33500D02*
G03*
X186031Y27632I2258J-2500D01*
G01*
X183250Y39100D02*
G03*
X183774Y38500I2781J1900D01*
G01*
D02*
G03*
X183250Y37900I2258J-2500D01*
G01*
X170000D02*
G03*
X168657Y37343I0J-1900D01*
G01*
X170000Y37900D02*
G03*
X168654Y37341I0J-1900D01*
G01*
X183250Y34100D02*
G03*
X183774Y33500I2781J1900D01*
G01*
X189969Y27632D02*
G03*
X192332Y28600I0J3368D01*
G01*
X159770Y28457D02*
G03*
X154804Y26400I-1270J-3957D01*
G01*
X162656Y24500D02*
G03*
X162457Y25770I-4156J0D01*
G01*
X154804Y22600D02*
G03*
X162656Y24500I3696J1900D01*
G01*
X115500Y31100D02*
G03*
X116846Y31659I0J1900D01*
G01*
X115500Y31100D02*
G03*
X116843Y31657I0J1900D01*
G01*
X119800Y132184D02*
G03*
X119580Y128390I-3800J-1684D01*
G01*
X95762Y123000D02*
G03*
X88753Y124900I-3762J0D01*
G01*
Y121100D02*
G03*
X95762Y123000I3247J1900D01*
G01*
X120156Y100500D02*
G03*
X112304Y102400I-4156J0D01*
G01*
Y98600D02*
G03*
X120156Y100500I3696J1900D01*
G01*
X99500Y102400D02*
G03*
X98156Y101844I0J-1900D01*
G01*
X99500Y102400D02*
G03*
X98154Y101841I0J-1900D01*
G01*
X95762Y93000D02*
G03*
X95640Y93953I-3762J0D01*
G01*
X92953Y96640D02*
G03*
X88360Y92047I-953J-3640D01*
G01*
X91047Y89360D02*
G03*
X95762Y93000I953J3640D01*
G01*
X63262Y189500D02*
G03*
X63262Y189500I-3762J0D01*
G01*
X33140Y188547D02*
G03*
X33262Y189500I-3640J953D01*
G01*
D02*
G03*
X30453Y185860I-3762J0D01*
G01*
X44354Y171959D02*
G03*
X45700Y171400I1346J1341D01*
G01*
X20150Y211000D02*
G03*
X14877Y219600I-9650J0D01*
G01*
X1900Y206623D02*
G03*
X20150Y211000I8600J4377D01*
G01*
X6123Y219600D02*
G03*
X1900Y215377I4377J-8600D01*
G01*
X62762Y157000D02*
G03*
X62762Y157000I-3762J0D01*
G01*
X62262Y125000D02*
G03*
X59513Y121377I-3762J0D01*
G01*
X44357Y171957D02*
G03*
X45700Y171400I1343J1343D01*
G01*
X59513Y121377D02*
G03*
X60500Y121100I987J1623D01*
G01*
X62884Y92500D02*
G03*
X62884Y92500I-3624J0D01*
G01*
Y82500D02*
G03*
X62884Y82500I-3624J0D01*
G01*
X59513Y121377D02*
G03*
X60500Y121100I987J1623D01*
G01*
X32762Y157000D02*
G03*
X32762Y157000I-3762J0D01*
G01*
X32262Y125000D02*
G03*
X32262Y125000I-3762J0D01*
G01*
X31624Y82500D02*
G03*
X31624Y82500I-3624J0D01*
G01*
X116262Y55500D02*
G03*
X109253Y57400I-3762J0D01*
G01*
X99546Y57841D02*
G03*
X98200Y58400I-1346J-1341D01*
G01*
X99543Y57844D02*
G03*
X98200Y58400I-1343J-1343D01*
G01*
X109253Y53600D02*
G03*
X116262Y55500I3247J1900D01*
G01*
X97856Y54157D02*
G03*
X99200Y53600I1343J1343D01*
G01*
X97854Y54159D02*
G03*
X99200Y53600I1346J1341D01*
G01*
X88750Y58400D02*
G03*
X85969Y59869I-2781J-1900D01*
G01*
X89337Y51500D02*
G03*
X88226Y54000I-3368J0D01*
G01*
D02*
G03*
X88750Y54600I-2258J2500D01*
G01*
X82032Y59869D02*
G03*
X79774Y54000I0J-3368D01*
G01*
D02*
G03*
X79250Y53400I2258J-2500D01*
G01*
X89337Y46500D02*
G03*
X88226Y49000I-3368J0D01*
G01*
D02*
G03*
X89337Y51500I-2258J2500D01*
G01*
X85969Y43132D02*
G03*
X89337Y46500I0J3368D01*
G01*
X115823Y27263D02*
G03*
X115665Y23467I-3323J-1763D01*
G01*
X79774Y49000D02*
G03*
X79250Y48400I2258J-2500D01*
G01*
X79250Y49600D02*
G03*
X79774Y49000I2781J1900D01*
G01*
X79250Y44600D02*
G03*
X82032Y43132I2781J1900D01*
G01*
X71500Y70600D02*
G03*
X72846Y71159I0J1900D01*
G01*
X71500Y70600D02*
G03*
X72843Y71157I0J1900D01*
G01*
X62786Y61661D02*
G03*
X62884Y62500I-3526J839D01*
G01*
D02*
G03*
X60099Y58974I-3624J0D01*
G01*
X62346Y74400D02*
G03*
X62346Y70600I-3087J-1900D01*
G01*
X31526Y61661D02*
G03*
X31624Y62500I-3526J839D01*
G01*
D02*
G03*
X28839Y58974I-3624J0D01*
G01*
X31624Y72500D02*
G03*
X31624Y72500I-3624J0D01*
G01*
X68916Y50156D02*
G03*
X70260Y49600I1343J1343D01*
G01*
X68914Y50159D02*
G03*
X70260Y49600I1346J1341D01*
G01*
X42656Y45156D02*
G03*
X44000Y44600I1343J1343D01*
G01*
X42654Y45159D02*
G03*
X44000Y44600I1346J1341D01*
G01*
X64747Y34900D02*
G03*
X64747Y31100I-3247J-1900D01*
G01*
X35262Y33000D02*
G03*
X35262Y33000I-3762J0D01*
G01*
X20650Y12000D02*
G03*
X1900Y15211I-9650J0D01*
G01*
Y8789D02*
G03*
X20650Y12000I9100J3211D01*
G01*
X245713Y219600D02*
X248100Y217213D01*
X242225Y216269D02*
X245556Y219600D01*
X243581D02*
X248100Y215081D01*
X240438Y217310D02*
X242727Y219600D01*
X237924D02*
X240051Y217473D01*
X240752Y219600D02*
X248100Y212252D01*
X246143Y208873D02*
X248100Y210830D01*
X245736Y211295D02*
X248100Y213659D01*
X246150Y208545D02*
X248100Y206595D01*
X244886Y213274D02*
X248100Y216487D01*
X243704Y214920D02*
X247049Y218264D01*
X245473Y212051D02*
X248100Y209424D01*
X229438Y219600D02*
X232001Y217037D01*
X226610Y219600D02*
X230308Y215902D01*
X223782Y219600D02*
X228915Y214466D01*
X220953Y219600D02*
X227825Y212728D01*
X218125Y219600D02*
X227089Y210635D01*
X215296Y219600D02*
X226861Y208035D01*
X235576Y218106D02*
X237071Y219600D01*
X235095D02*
X236545Y218150D01*
X238283Y217984D02*
X239899Y219600D01*
X232267D02*
X234037Y217830D01*
X231219Y216577D02*
X234242Y219600D01*
X219448Y156723D02*
X248100Y185374D01*
X218027Y158130D02*
X248100Y188203D01*
X221125Y155571D02*
X248100Y182546D01*
X215214Y160973D02*
X248100Y193860D01*
X213312Y161900D02*
X248100Y196688D01*
X216628Y159559D02*
X248100Y191031D01*
X221741Y147702D02*
X248100Y174061D01*
X221837Y153454D02*
X248100Y179718D01*
X221603Y144735D02*
X248100Y171232D01*
X221389Y150178D02*
X248100Y176889D01*
X221126Y141429D02*
X248100Y168404D01*
X245830Y206037D02*
X248100Y203767D01*
X245707Y205609D02*
X248100Y208002D01*
X245037Y204001D02*
X248100Y200938D01*
X212468Y219600D02*
X227854Y204214D01*
X243902Y202308D02*
X248100Y198110D01*
X240728Y199825D02*
X248100Y192453D01*
X242466Y200915D02*
X248100Y195282D01*
X238635Y199089D02*
X248100Y189625D01*
X236035Y198861D02*
X248100Y186796D01*
X232214Y199854D02*
X248100Y183968D01*
X206811Y219600D02*
X248100Y178311D01*
X209639Y219600D02*
X248100Y181139D01*
X203983Y219600D02*
X248100Y175483D01*
X201154Y219600D02*
X248100Y172654D01*
X182250Y170437D02*
X231414Y219600D01*
X198326D02*
X248100Y169826D01*
X195497Y219600D02*
X248100Y166997D01*
X193632Y162020D02*
X231726Y200114D01*
X196341Y161900D02*
X233705Y199264D01*
X192669Y219600D02*
X248100Y164169D01*
X190110Y164154D02*
X228731Y202776D01*
X192267Y163483D02*
X230080Y201296D01*
X178007Y174679D02*
X222928Y219600D01*
X175700Y175200D02*
X220100Y219600D01*
X179422Y173265D02*
X225757Y219600D01*
X172872Y175200D02*
X217272Y219600D01*
X170043Y175200D02*
X214443Y219600D01*
X172872Y175200D02*
X217272Y219600D01*
X186493Y166194D02*
X227016Y206717D01*
X185079Y167608D02*
X226894Y209424D01*
X187907Y164780D02*
X227690Y204562D01*
X180836Y171851D02*
X228585Y219600D01*
X183665Y169022D02*
X228424Y213781D01*
X178527Y219600D02*
X248100Y150027D01*
X181355Y219600D02*
X248100Y152855D01*
X175698Y219600D02*
X248100Y147198D01*
X170041Y219600D02*
X248100Y141541D01*
X172870Y219600D02*
X248100Y144370D01*
X167213Y219600D02*
X248100Y138713D01*
X186280Y103756D02*
X248100Y165576D01*
X164385Y219600D02*
X248100Y135885D01*
X188524Y103171D02*
X248100Y162747D01*
X161556Y219600D02*
X248100Y133056D01*
X158728Y219600D02*
X248100Y130228D01*
X207655Y161900D02*
X248100Y202345D01*
X204826Y161900D02*
X248100Y205173D01*
X210483Y161900D02*
X248100Y199517D01*
X187012Y219600D02*
X248100Y158512D01*
X189840Y219600D02*
X248100Y161340D01*
X184184Y219600D02*
X248100Y155684D01*
X201998Y161900D02*
X239391Y199293D01*
X199170Y161900D02*
X236127Y198857D01*
X141874Y171400D02*
X225043Y88230D01*
X139045Y171400D02*
X223629Y86816D01*
X136217Y171400D02*
X222215Y85402D01*
X221805Y148037D02*
X248100Y121742D01*
X221833Y153666D02*
X248100Y127399D01*
X234975Y112853D02*
X248100Y125978D01*
X220873Y146141D02*
X248100Y118914D01*
X221176Y151495D02*
X248100Y124571D01*
X221685Y142500D02*
X248100Y116086D01*
X242353Y106088D02*
X248100Y111835D01*
X242353Y108917D02*
X248100Y114664D01*
X242353Y110519D02*
X248100Y104772D01*
X240632Y112853D02*
X248100Y120321D01*
X237804Y112853D02*
X248100Y123149D01*
X242353Y111745D02*
X248100Y117492D01*
X233647Y112853D02*
X242353D01*
X233647Y104147D02*
Y112853D01*
X242353Y104147D02*
Y112853D01*
X237411Y104147D02*
X238775Y102783D01*
X239001Y102736D02*
X240412Y104147D01*
X233647D02*
X242353D01*
X234582D02*
X236246Y102484D01*
X242283Y99275D02*
X248100Y93458D01*
X242232Y97482D02*
X248100Y103350D01*
X241984Y96746D02*
X248100Y90630D01*
X240764Y95137D02*
X248100Y87801D01*
X240239Y104147D02*
X248100Y96286D01*
X238843Y94230D02*
X248100Y84973D01*
X234802Y92615D02*
X248100Y79316D01*
X236216Y94029D02*
X248100Y82144D01*
X233387Y91200D02*
X248100Y76487D01*
X231973Y89786D02*
X248100Y73659D01*
X230559Y88372D02*
X248100Y70831D01*
X242040Y100119D02*
X248100Y106178D01*
X242353Y107691D02*
X248100Y101943D01*
X242353Y104862D02*
X248100Y99115D01*
X240868Y101775D02*
X248100Y109007D01*
X235498Y102062D02*
X237583Y104147D01*
X206365Y143678D02*
X237191Y112853D01*
X207779Y145092D02*
X240019Y112853D01*
X204951Y142264D02*
X234362Y112853D01*
X203537Y140850D02*
X233647Y110739D01*
X189865Y101683D02*
X248100Y159919D01*
X218397Y140131D02*
X248100Y110429D01*
X220525Y140832D02*
X248100Y113257D01*
X215569Y140131D02*
X248100Y107600D01*
X200708Y138021D02*
X233647Y105082D01*
X202123Y139436D02*
X233647Y107911D01*
X199294Y136607D02*
X234637Y101264D01*
X214846Y161341D02*
X217841Y158346D01*
X212713Y158100D02*
X213988Y156825D01*
X218397Y157102D02*
X218635Y156864D01*
X214531Y140131D02*
X218468D01*
X197880Y135193D02*
X233730Y99343D01*
X196466Y133779D02*
X233529Y96716D01*
X195052Y132364D02*
X232115Y95302D01*
X190166Y99157D02*
X248100Y157090D01*
X194131Y130457D02*
X230700Y93887D01*
X193684Y128076D02*
X229286Y92473D01*
X217900Y73150D02*
X239018Y94268D01*
X217900Y75713D02*
X236574Y94387D01*
X217900Y70322D02*
X248100Y100522D01*
X192355Y126576D02*
X227872Y91059D01*
X214659Y77846D02*
X233887Y97074D01*
X190251Y125852D02*
X226458Y89645D01*
X172262Y129698D02*
X219387Y82574D01*
X172262Y126869D02*
X217972Y81159D01*
X172262Y132526D02*
X220801Y83988D01*
X170565Y125738D02*
X216558Y79745D01*
X167737Y125738D02*
X215144Y78331D01*
X190240Y100406D02*
X214101Y76546D01*
X189736Y98082D02*
X214100Y73718D01*
X188296Y96694D02*
X214100Y70890D01*
X161558Y175200D02*
X205958Y219600D01*
X158729Y175200D02*
X203129Y219600D01*
X164386Y175200D02*
X208786Y219600D01*
X147414D02*
X205114Y161900D01*
X155901Y175200D02*
X200301Y219600D01*
X150242D02*
X207942Y161900D01*
X193696D02*
X213500D01*
X193696Y158100D02*
X212713D01*
X211742D02*
X213234Y156608D01*
X167215Y175200D02*
X211615Y219600D01*
X153071D02*
X210771Y161900D01*
X155899Y219600D02*
X213602Y161897D01*
X178046Y174641D02*
X188730Y163957D01*
X150244Y175200D02*
X194644Y219600D01*
X147416Y175200D02*
X191816Y219600D01*
X153073Y175200D02*
X197473Y219600D01*
X193566Y162134D02*
X193800Y161900D01*
X175913Y171400D02*
X186043Y161270D01*
X175815Y171400D02*
X186020Y161195D01*
X172986Y171400D02*
X186323Y158064D01*
X170158Y171400D02*
X199436Y142123D01*
X167330Y171400D02*
X198021Y140708D01*
X172262Y129336D02*
X201026Y158100D01*
X164501Y171400D02*
X196607Y139294D01*
X161673Y171400D02*
X195193Y137880D01*
X158844Y171400D02*
X193779Y136466D01*
X206086Y158100D02*
X211203Y152983D01*
X203257Y158100D02*
X210957Y150400D01*
X194772Y158100D02*
X205092Y147779D01*
X187705Y133465D02*
X212340Y158100D01*
X172262Y126507D02*
X203855Y158100D01*
X156016Y171400D02*
X192365Y135052D01*
X153188Y171400D02*
X190457Y134131D01*
X150359Y171400D02*
X188076Y133684D01*
X147531Y171400D02*
X186576Y132355D01*
X147847Y133205D02*
X180978Y166335D01*
X144702Y171400D02*
X185852Y130251D01*
X158427Y135300D02*
X185220Y162093D01*
X161256Y135300D02*
X185846Y159890D01*
X152771Y135300D02*
X182392Y164921D01*
X155599Y135300D02*
X183806Y163507D01*
X136102Y175200D02*
X180502Y219600D01*
X133274Y175200D02*
X177674Y219600D01*
X138930Y175200D02*
X183330Y219600D01*
X130443D02*
X174843Y175200D01*
X127617D02*
X172017Y219600D01*
X130445Y175200D02*
X174845Y219600D01*
X144587Y175200D02*
X188987Y219600D01*
X141759Y175200D02*
X186159Y219600D01*
X141757D02*
X199457Y161900D01*
X136100Y219600D02*
X192134Y163566D01*
X133272Y219600D02*
X188872Y164000D01*
X138929Y219600D02*
X196629Y161900D01*
X119130Y219600D02*
X163530Y175200D01*
X116303D02*
X160703Y219600D01*
X119131Y175200D02*
X163531Y219600D01*
X113475Y175200D02*
X157875Y219600D01*
X113473D02*
X157873Y175200D01*
X116301Y219600D02*
X160701Y175200D01*
X124788D02*
X169188Y219600D01*
X124786D02*
X169186Y175200D01*
X127615Y219600D02*
X172015Y175200D01*
X121958Y219600D02*
X166358Y175200D01*
X121960D02*
X166360Y219600D01*
X144586D02*
X202286Y161900D01*
X130560Y171400D02*
X168698Y133262D01*
X133388Y171400D02*
X171526Y133262D01*
X129306Y131634D02*
X169072Y171400D01*
X126632Y131789D02*
X166243Y171400D01*
X129306Y131634D02*
X169072Y171400D01*
X140385Y131400D02*
X178149Y169164D01*
X137557Y131400D02*
X176735Y170578D01*
X143214Y131400D02*
X179563Y167750D01*
X131980Y131480D02*
X171900Y171400D01*
X134728Y131400D02*
X174728Y171400D01*
X119246D02*
X155346Y135300D01*
X117783Y134254D02*
X154929Y171400D01*
X119336Y132978D02*
X157758Y171400D01*
X116418D02*
X152518Y135300D01*
X115297Y134596D02*
X152101Y171400D01*
X113590D02*
X150651Y134338D01*
X127732Y171400D02*
X163832Y135300D01*
X124903Y171400D02*
X161003Y135300D01*
X123958Y131943D02*
X163415Y171400D01*
X122075D02*
X158175Y135300D01*
X121284Y132098D02*
X160586Y171400D01*
X208914Y158100D02*
X211696Y155318D01*
X210297Y150400D02*
X211651Y151754D01*
X200429Y158100D02*
X208159Y150369D01*
X191081Y134013D02*
X211228Y154160D01*
X209287Y146600D02*
X211750D01*
X209194Y146507D02*
X211289Y144412D01*
X208500Y150400D02*
X211750D01*
X191270Y133957D02*
X207154Y149841D01*
X197600Y158100D02*
X206507Y149194D01*
X192960Y157083D02*
X203678Y146365D01*
X188064Y156323D02*
X200850Y143537D01*
X166150Y134537D02*
X187980Y156368D01*
X164084Y135300D02*
X186517Y157733D01*
X170532Y133262D02*
X195370Y158100D01*
X191195Y156020D02*
X202264Y144951D01*
X167425Y133262D02*
X172262D01*
X167703D02*
X190296Y155855D01*
X193966Y131241D02*
X209326Y146600D01*
X193957Y131270D02*
X209287Y146600D01*
X193738Y128184D02*
X211923Y146369D01*
X172262Y132164D02*
X198198Y158100D01*
X164909Y125738D02*
X186906Y103740D01*
X164738Y125738D02*
X172262D01*
X161068Y126750D02*
X184582Y103236D01*
X160246Y100349D02*
X187010Y127113D01*
X171526Y133262D02*
X172262Y132526D01*
X165946Y134741D02*
X167425Y133262D01*
X172262Y125738D02*
Y133262D01*
X161687Y131500D02*
X163813D01*
X162124Y130511D02*
X163113Y131500D01*
X164738Y125738D02*
Y130575D01*
X163813Y131500D02*
X164738Y130575D01*
X171493Y125738D02*
X172262Y126507D01*
X161975Y131500D02*
X164738Y128737D01*
X162131Y128515D02*
X164738Y125909D01*
X157779Y103538D02*
X186535Y132295D01*
X152400Y135300D02*
X164600D01*
X154733Y103322D02*
X209512Y158100D01*
X152140Y130453D02*
X153187Y131500D01*
X152243Y129115D02*
X154627Y131500D01*
X153489D02*
X154801Y130188D01*
X159429Y102361D02*
X185987Y128919D01*
X131853Y127681D02*
X155831Y103702D01*
X153187Y131500D02*
X155313D01*
X128851Y127854D02*
X153944Y102761D01*
X149453Y133140D02*
X151054Y134741D01*
X133355Y131400D02*
X145253D01*
X119800Y132184D02*
X133355Y131400D01*
X133300Y127600D02*
X145253D01*
X119580Y128390D02*
X133186Y127603D01*
X116446Y104632D02*
X139414Y127600D01*
X118478Y103836D02*
X142242Y127600D01*
X159188Y125801D02*
X183194Y101796D01*
X152238Y129923D02*
X182791Y99370D01*
X125849Y128027D02*
X152035Y101842D01*
X136733Y88149D02*
X206683Y158100D01*
X152500Y101900D02*
X153253D01*
X140457Y85270D02*
X153266Y98079D01*
X140633Y83564D02*
X154139Y97071D01*
X122847Y128201D02*
X150431Y100618D01*
X120096Y99797D02*
X146570Y126271D01*
X119846Y128375D02*
X149017Y99204D01*
X118332Y127060D02*
X147602Y97789D01*
X119754Y102283D02*
X145071Y127600D01*
X116214Y126350D02*
X146188Y96375D01*
X137770Y87957D02*
X151154Y101341D01*
X120102Y99834D02*
X133293Y86643D01*
X119227Y97881D02*
X132404Y84703D01*
X222074Y79887D02*
X248100Y53860D01*
X223488Y81301D02*
X248100Y56688D01*
X220659Y78472D02*
X248100Y51032D01*
X217900Y53351D02*
X248100Y83551D01*
X217900Y56179D02*
X248100Y86379D01*
X217900Y50523D02*
X248100Y80723D01*
X219254Y43391D02*
X248100Y72237D01*
X219245Y77058D02*
X248100Y48203D01*
X217900Y72746D02*
X248100Y42546D01*
X217900Y75575D02*
X248100Y45375D01*
X217900Y47694D02*
X248100Y77894D01*
X217900Y44866D02*
X248100Y75066D01*
X227730Y85543D02*
X248100Y65174D01*
X229145Y86958D02*
X248100Y68002D01*
X217900Y59008D02*
X248100Y89208D01*
X217900Y64665D02*
X248100Y94865D01*
X217900Y67493D02*
X248100Y97693D01*
X217900Y61836D02*
X248100Y92036D01*
X224902Y82715D02*
X248100Y59517D01*
X226316Y84129D02*
X248100Y62345D01*
X217900Y44416D02*
Y75713D01*
X214100Y44416D02*
Y76500D01*
X206949Y42400D02*
X214100Y49551D01*
X220353Y27520D02*
X248100Y55267D01*
X220353Y30348D02*
X248100Y58095D01*
Y1900D02*
Y217213D01*
X217900Y58604D02*
X248100Y28404D01*
X217900Y61433D02*
X248100Y31233D01*
X217900Y55776D02*
X248100Y25576D01*
X217900Y47291D02*
X248100Y17090D01*
X217900Y50119D02*
X248100Y19919D01*
X219870Y42492D02*
X248100Y14262D01*
X217900Y52947D02*
X248100Y22747D01*
X206047Y1900D02*
X248100Y43953D01*
X219654Y38134D02*
X248100Y66580D01*
X220228Y41537D02*
X248100Y69409D01*
X219201Y34853D02*
X248100Y63752D01*
X217900Y67089D02*
X248100Y36889D01*
X217900Y69918D02*
X248100Y39718D01*
X217900Y64261D02*
X248100Y34061D01*
X220353Y33176D02*
X248100Y60924D01*
X204120Y42400D02*
X214100Y52380D01*
X209777Y42400D02*
X214100Y46723D01*
X161958Y56806D02*
X248100Y142948D01*
X160478Y58155D02*
X248100Y145776D01*
X162652Y54672D02*
X248100Y140120D01*
X149738Y55900D02*
X248100Y154262D01*
X158135Y58640D02*
X248100Y148605D01*
X152567Y55900D02*
X248100Y151433D01*
X167490Y48197D02*
X248100Y128806D01*
X168905Y46782D02*
X233647Y111525D01*
X170319Y45368D02*
X233647Y108696D01*
X164662Y51025D02*
X248100Y134463D01*
X163248Y52439D02*
X248100Y137291D01*
X166076Y49611D02*
X248100Y131634D01*
X137681Y57985D02*
X220539Y140843D01*
X143247Y127600D02*
X214100Y56747D01*
X140419Y127600D02*
X214100Y53919D01*
X134523Y57656D02*
X216999Y140131D01*
X137591Y127600D02*
X214100Y51091D01*
X134762Y127600D02*
X214100Y48262D01*
X151742Y127591D02*
X214100Y65233D01*
X185870Y96291D02*
X214100Y68061D01*
X160202Y99331D02*
X214100Y45434D01*
X150305Y126199D02*
X214100Y62404D01*
X147888Y125788D02*
X214100Y59576D01*
X179165Y42900D02*
X233764Y97499D01*
X193131Y42724D02*
X214100Y63693D01*
X195865Y42630D02*
X214100Y60865D01*
X173508Y42900D02*
X234755Y104147D01*
X171733Y43954D02*
X233647Y105868D01*
X176336Y42900D02*
X234438Y101002D01*
X200390Y1900D02*
X248100Y49610D01*
X201333Y42441D02*
X214100Y55208D01*
X203219Y1900D02*
X248100Y46782D01*
X198599Y42536D02*
X214100Y58036D01*
X197562Y1900D02*
X248100Y52438D01*
X181993Y42900D02*
X214100Y75007D01*
X159261Y97444D02*
X213026Y43679D01*
X157503Y96374D02*
X211477Y42400D01*
X151704Y96517D02*
X205820Y42400D01*
X150289Y95102D02*
X202992Y42400D01*
X153118Y97931D02*
X208648Y42400D01*
X191552Y43973D02*
X214100Y66522D01*
X192857Y42734D02*
X202533Y42400D01*
X212084D01*
X186290Y44368D02*
X214100Y72179D01*
X189118Y44368D02*
X214100Y69350D01*
X237494Y22034D02*
X248100Y32639D01*
X234693Y22061D02*
X248100Y35468D01*
X239701Y21412D02*
X248100Y29811D01*
X220195Y39339D02*
X237501Y22032D01*
X219179Y37526D02*
X234650Y22055D01*
X220353Y33524D02*
X232417Y21460D01*
X245625Y13194D02*
X248100Y15669D01*
X245155Y15552D02*
X248100Y18497D01*
X245532Y14001D02*
X248100Y11434D01*
X243043Y19097D02*
X248100Y24154D01*
X241528Y20410D02*
X248100Y26983D01*
X244262Y17487D02*
X248100Y21326D01*
X217473Y36404D02*
X219024Y34853D01*
X216372D02*
X218366Y36846D01*
X220353Y26147D02*
Y34853D01*
X214704Y36345D02*
X216196Y34853D01*
X220353Y30696D02*
X230571Y20478D01*
X220353Y27867D02*
X229038Y19182D01*
X219245Y26147D02*
X227802Y17590D01*
X216416Y26147D02*
X226887Y15676D01*
X213588Y26147D02*
X226387Y13348D01*
X245555Y11150D02*
X248100Y8605D01*
X245342Y10083D02*
X248100Y12840D01*
X244960Y8917D02*
X248100Y5777D01*
X239988Y1900D02*
X248100Y10012D01*
X242817Y1900D02*
X248100Y7183D01*
X243978Y7071D02*
X248100Y2948D01*
X242682Y5538D02*
X246320Y1900D01*
X245645D02*
X248100Y4355D01*
X239176Y3387D02*
X240663Y1900D01*
X241090Y4302D02*
X243492Y1900D01*
X225846D02*
X229403Y5457D01*
X223018Y1900D02*
X228090Y6972D01*
X228674Y1900D02*
X231013Y4239D01*
X217361Y1900D02*
X226466Y11006D01*
X214532Y1900D02*
X226439Y13807D01*
X220189Y1900D02*
X227088Y8799D01*
X236848Y2887D02*
X237835Y1900D01*
X234331D02*
X235306Y2875D01*
X237160Y1900D02*
X238417Y3158D01*
X231503Y1900D02*
X232948Y3345D01*
X233803Y3103D02*
X235006Y1900D01*
X213544Y34853D02*
X214964Y36272D01*
X211647Y32400D02*
Y34853D01*
X209620Y38600D02*
X213367Y34853D01*
X202500Y38600D02*
X212084D01*
X208263Y32400D02*
X213109Y37246D01*
X211647Y34853D02*
X220353D01*
X211647Y26147D02*
Y28600D01*
Y26147D02*
X220353D01*
X192332Y28600D02*
X211647D01*
X211091Y32400D02*
X211647Y32956D01*
X211135Y28600D02*
X211647Y28088D01*
X199777Y32400D02*
X205977Y38600D01*
X198158Y38749D02*
X204506Y32400D01*
X201087Y38648D02*
X207335Y32400D01*
X192633Y38939D02*
X202432Y38601D01*
X195228Y38850D02*
X201678Y32400D01*
X196949D02*
X203149Y38600D01*
X206792D02*
X211647Y33744D01*
X203963Y38600D02*
X210163Y32400D01*
X205434D02*
X211634Y38600D01*
X193032Y32400D02*
X211647D01*
X202606D02*
X208806Y38600D01*
X208875Y1900D02*
X248100Y41125D01*
X208306Y28600D02*
X226603Y10303D01*
X211704Y1900D02*
X248100Y38296D01*
X196993Y28600D02*
X223693Y1900D01*
X194164Y28600D02*
X220864Y1900D01*
X199821Y28600D02*
X226521Y1900D01*
X202650Y28600D02*
X229350Y1900D01*
X194733D02*
X218981Y26147D01*
X205478Y28600D02*
X232178Y1900D01*
X191777Y28158D02*
X218036Y1900D01*
X191905D02*
X216152Y26147D01*
X177351Y34100D02*
X209551Y1900D01*
X177763D02*
X204463Y28600D01*
X180591Y1900D02*
X207291Y28600D01*
X174522Y34100D02*
X206722Y1900D01*
X171694Y34100D02*
X203894Y1900D01*
X174934D02*
X201634Y28600D01*
X189076Y1900D02*
X213324Y26147D01*
X186647Y27632D02*
X212379Y1900D01*
X189476Y27632D02*
X215207Y1900D01*
X183420D02*
X210120Y28600D01*
X186248Y1900D02*
X211647Y27299D01*
X147461Y92274D02*
X197149Y42586D01*
X146910Y55900D02*
X187343Y96333D01*
X148875Y93688D02*
X200079Y42485D01*
X144632Y89446D02*
X189709Y44368D01*
X144081Y55900D02*
X184817Y96635D01*
X146047Y90860D02*
X194220Y42687D01*
X186031Y44368D02*
X189969D01*
X143218Y88031D02*
X186881Y44368D01*
X141804Y86617D02*
X184448Y43973D01*
X162656Y54452D02*
X174207Y42900D01*
X172787D02*
X183250D01*
X162457Y53230D02*
X172787Y42900D01*
X172000Y39100D02*
X183250D01*
X159770Y50543D02*
X170654Y39659D01*
X172351Y39100D02*
X173551Y37900D01*
X171336D02*
X172536Y39100D01*
X174165Y37900D02*
X175365Y39100D01*
X158272Y50350D02*
X170722Y37900D01*
X179822D02*
X181021Y39100D01*
X178007D02*
X179207Y37900D01*
X180836Y39100D02*
X182036Y37900D01*
X175179Y39100D02*
X176379Y37900D01*
X176993D02*
X178193Y39100D01*
X153694Y52100D02*
X168553Y37240D01*
X150865Y52100D02*
X167139Y35826D01*
X148037Y52100D02*
X165725Y34412D01*
X145208Y52100D02*
X164311Y32998D01*
X142380Y52100D02*
X162897Y31583D01*
X142866Y26400D02*
X163389Y46924D01*
X159204Y28596D02*
X170460Y39853D01*
X151351Y26400D02*
X167632Y42681D01*
X154179Y26400D02*
X169046Y41267D01*
X145694Y26400D02*
X164804Y45509D01*
X148522Y26400D02*
X166218Y44095D01*
X141253Y55900D02*
X183329Y97976D01*
X139451Y56926D02*
X182744Y100220D01*
X140513Y85079D02*
X182693Y42900D01*
X117610Y96669D02*
X156271Y58008D01*
X114979Y96471D02*
X154891Y56560D01*
X116180Y56283D02*
X156151Y96254D01*
X140196Y52100D02*
X155107D01*
X140196Y55900D02*
X154587D01*
X140344Y82420D02*
X179864Y42900D01*
X137203Y79904D02*
X158452Y58656D01*
X139143Y80793D02*
X177036Y42900D01*
X115194Y58126D02*
X136936Y79867D01*
X113394Y59154D02*
X134563Y80323D01*
X116261Y55591D02*
X125833Y46020D01*
X115623Y53401D02*
X124419Y44606D01*
X114713Y34900D02*
X132543Y52730D01*
X114101Y52095D02*
X123004Y43191D01*
X114596Y34900D02*
X132515Y52819D01*
X139957Y51694D02*
X161482Y30169D01*
X138478Y50345D02*
X160068Y28755D01*
X134467Y26486D02*
X158328Y50348D01*
X129036Y26713D02*
X154423Y52100D01*
X126321Y26826D02*
X151595Y52100D01*
X131751Y26599D02*
X156194Y51042D01*
X137209Y26400D02*
X160561Y49752D01*
X136135Y49860D02*
X157469Y28526D01*
X140037Y26400D02*
X161975Y48338D01*
X134177Y48990D02*
X155646Y27521D01*
X132762Y47575D02*
X153938Y26400D01*
X120890Y27052D02*
X145938Y52100D01*
X118175Y27165D02*
X143110Y52100D01*
X123606Y26939D02*
X148767Y52100D01*
X114206Y28853D02*
X135357Y50004D01*
X116846Y31659D02*
X135230Y50043D01*
X115684Y27503D02*
X138588Y50407D01*
X129934Y44747D02*
X148281Y26400D01*
X128520Y43333D02*
X145453Y26400D01*
X131348Y46161D02*
X151109Y26400D01*
X125691Y40504D02*
X139796Y26400D01*
X127106Y41919D02*
X142624Y26400D01*
X192487Y38763D02*
X198850Y32400D01*
X193155Y37092D02*
X194924Y38860D01*
X194121Y32400D02*
X200392Y38672D01*
X192312Y33420D02*
X197658Y38766D01*
X192853Y32740D02*
X193193Y32400D01*
X193237Y35184D02*
X196021Y32400D01*
X186031Y27632D02*
X189969D01*
X182650Y37900D02*
X183513Y38763D01*
X170000Y37900D02*
X183250D01*
X183007Y34100D02*
X183688Y33420D01*
X180179Y34100D02*
X182711Y31568D01*
X170787Y34100D02*
X183250D01*
X159770Y28457D02*
X168654Y37341D01*
X168412Y31725D02*
X198237Y1900D01*
X169826Y33139D02*
X201065Y1900D01*
X166449D02*
X193149Y28600D01*
X165584Y28896D02*
X192580Y1900D01*
X166998Y30311D02*
X195408Y1900D01*
X169277D02*
X195977Y28600D01*
X164169Y27482D02*
X189752Y1900D01*
X172106D02*
X198806Y28600D01*
X162755Y26068D02*
X186923Y1900D01*
X163620D02*
X189352Y27632D01*
X162513Y23420D02*
X173193Y34100D01*
X162457Y25770D02*
X170787Y34100D01*
X160792Y1900D02*
X186524Y27632D01*
X155135Y1900D02*
X182927Y29692D01*
X157964Y1900D02*
X184222Y28159D01*
X161521Y21646D02*
X181266Y1900D01*
X162526Y23469D02*
X184095Y1900D01*
X156803Y20706D02*
X175609Y1900D01*
X159789Y20549D02*
X178438Y1900D01*
X136539Y26400D02*
X154804D01*
X124277Y39090D02*
X136967Y26400D01*
X117343Y23396D02*
X138840Y1900D01*
X115823Y27263D02*
X136539Y26400D01*
X120295Y23274D02*
X141668Y1900D01*
X136500Y22600D02*
X154804D01*
X124022Y1900D02*
X144722Y22600D01*
X126198Y23028D02*
X147325Y1900D01*
X121194D02*
X141894Y22600D01*
X118366Y1900D02*
X139066Y22600D01*
X123246Y23151D02*
X144497Y1900D01*
X121449Y36262D02*
X131083Y26627D01*
X120035Y34848D02*
X128132Y26750D01*
X122863Y37676D02*
X134035Y26504D01*
X117206Y32019D02*
X122229Y26996D01*
X118620Y33433D02*
X125180Y26873D01*
X115665Y23467D02*
X136418Y22602D01*
X115537Y1900D02*
X136246Y22609D01*
X112468Y31100D02*
X116326Y27242D01*
X115297Y31100D02*
X119277Y27119D01*
X149478Y1900D02*
X181678Y34100D01*
X146650Y1900D02*
X178850Y34100D01*
X152307Y1900D02*
X183148Y32741D01*
X140767Y22600D02*
X161467Y1900D01*
X137939Y22600D02*
X158639Y1900D01*
X143822D02*
X176022Y34100D01*
X149253Y22600D02*
X169953Y1900D01*
X146424Y22600D02*
X167124Y1900D01*
X152081Y22600D02*
X172781Y1900D01*
X140993D02*
X159580Y20487D01*
X143596Y22600D02*
X164296Y1900D01*
X132100Y22782D02*
X152982Y1900D01*
X129149Y22905D02*
X150154Y1900D01*
X135052Y22659D02*
X155810Y1900D01*
X115116Y22796D02*
X136011Y1900D01*
X112709D02*
X133531Y22722D01*
X126851Y1900D02*
X147551Y22600D01*
X135336Y1900D02*
X155293Y21857D01*
X132508Y1900D02*
X153208Y22600D01*
X138165Y1900D02*
X156921Y20656D01*
X113266Y21817D02*
X133183Y1900D01*
X129679D02*
X150379Y22600D01*
X82360Y219600D02*
X126760Y175200D01*
X79533D02*
X123933Y219600D01*
X82362Y175200D02*
X126762Y219600D01*
X76705Y175200D02*
X121105Y219600D01*
X76703D02*
X121103Y175200D01*
X79532Y219600D02*
X123932Y175200D01*
X110644Y219600D02*
X155044Y175200D01*
X107818D02*
X152218Y219600D01*
X110646Y175200D02*
X155046Y219600D01*
X85190Y175200D02*
X129590Y219600D01*
X85189D02*
X129588Y175200D01*
X88017Y219600D02*
X132417Y175200D01*
X68220D02*
X112620Y219600D01*
X68218D02*
X112618Y175200D01*
X71046Y219600D02*
X115446Y175200D01*
X65390Y219600D02*
X109790Y175200D01*
X63228Y190007D02*
X92821Y219600D01*
X65391Y175200D02*
X109791Y219600D01*
X73875D02*
X118275Y175200D01*
X71048D02*
X115448Y219600D01*
X73877Y175200D02*
X118277Y219600D01*
X62979Y188069D02*
X75848Y175200D01*
X63002Y190875D02*
X78677Y175200D01*
X104988Y219600D02*
X149388Y175200D01*
X102161D02*
X146561Y219600D01*
X104989Y175200D02*
X149389Y219600D01*
X99332Y175200D02*
X143732Y219600D01*
X99331D02*
X143731Y175200D01*
X102159Y219600D02*
X146559Y175200D01*
X107816Y219600D02*
X152216Y175200D01*
X110761Y171400D02*
X148923Y133238D01*
X107933Y171400D02*
X146591Y132742D01*
X105104Y171400D02*
X145104Y131400D01*
X68335Y171400D02*
X144774Y94961D01*
X93676Y175200D02*
X138075Y219600D01*
X93674D02*
X138074Y175200D01*
X96502Y219600D02*
X140902Y175200D01*
X90845Y219600D02*
X135245Y175200D01*
X88019D02*
X132419Y219600D01*
X90847Y175200D02*
X135247Y219600D01*
X102276Y171400D02*
X142276Y131400D01*
X96504Y175200D02*
X140904Y219600D01*
X95727Y123512D02*
X143616Y171400D01*
X63174Y124900D02*
X109675Y171400D01*
X65506D02*
X143360Y93547D01*
X56904Y219600D02*
X101304Y175200D01*
X54078D02*
X98478Y219600D01*
X56906Y175200D02*
X101306Y219600D01*
X51249Y175200D02*
X95649Y219600D01*
X51247D02*
X95647Y175200D01*
X54076Y219600D02*
X98476Y175200D01*
X62561Y219600D02*
X106961Y175200D01*
X59734D02*
X104134Y219600D01*
X62563Y175200D02*
X106963Y219600D01*
X14877D02*
X245713D01*
X46487Y175200D02*
X176700D01*
X59733Y219600D02*
X104133Y175200D01*
X57252Y192517D02*
X84335Y219600D01*
X40383Y181304D02*
X78679Y219600D01*
X41797Y179890D02*
X81507Y219600D01*
X37105D02*
X81505Y175200D01*
X38969Y182719D02*
X75850Y219600D01*
X39934D02*
X84334Y175200D01*
X62349Y191957D02*
X89992Y219600D01*
X60647Y193083D02*
X87164Y219600D01*
X48419D02*
X92819Y175200D01*
X42762Y219600D02*
X87162Y175200D01*
X45590Y219600D02*
X89991Y175200D01*
X60682Y128065D02*
X104018Y171400D01*
X58551Y128762D02*
X101189Y171400D01*
X1900Y74939D02*
X98361Y171400D01*
X1900Y80596D02*
X92704Y171400D01*
X1900Y83425D02*
X89876Y171400D01*
X1900Y77768D02*
X95532Y171400D01*
X62678D02*
X141946Y92133D01*
X61949Y126503D02*
X106846Y171400D01*
X62318Y84445D02*
X149273Y171400D01*
X45700D02*
X175913D01*
X60817Y85773D02*
X146444Y171400D01*
X1900Y175609D02*
X86911Y90598D01*
X6320Y202302D02*
X83722Y124900D01*
X1900Y172781D02*
X85497Y89184D01*
X1900Y203894D02*
X80894Y124900D01*
X1900Y201065D02*
X78065Y124900D01*
X1900Y198237D02*
X75237Y124900D01*
X62226Y155064D02*
X78562Y171400D01*
X62558Y158224D02*
X75733Y171400D01*
X1900Y86253D02*
X87047Y171400D01*
X1900Y91910D02*
X81390Y171400D01*
X1900Y89081D02*
X84219Y171400D01*
X90962D02*
X130815Y131547D01*
X88134Y171400D02*
X127813Y131720D01*
X85802Y124900D02*
X132302Y171400D01*
X85305D02*
X124811Y131894D01*
X82477Y171400D02*
X121809Y132067D01*
X82974Y124900D02*
X129474Y171400D01*
X99447D02*
X139447Y131400D01*
X96619Y171400D02*
X136619Y131400D01*
X94847Y125460D02*
X140787Y171400D01*
X93143Y126584D02*
X137959Y171400D01*
X93791D02*
X133791Y131400D01*
X89733Y126002D02*
X135130Y171400D01*
X95461Y124475D02*
X115334Y104602D01*
X88630Y124900D02*
X88998Y125267D01*
X95496Y121611D02*
X113381Y103727D01*
X84694Y121100D02*
X103394Y102400D01*
X87522Y121100D02*
X106222Y102400D01*
X105728D02*
X131055Y127727D01*
X102900Y102400D02*
X128381Y127881D01*
X108557Y102400D02*
X133757Y127600D01*
X100072Y102400D02*
X125707Y128036D01*
X100072Y102400D02*
X125707Y128036D01*
X91582Y96739D02*
X123033Y128190D01*
X111385Y102400D02*
X136585Y127600D01*
X99500Y102400D02*
X112304D01*
X100287Y98600D02*
X112304D01*
X94275Y120004D02*
X111879Y102400D01*
X92207Y119244D02*
X109051Y102400D01*
X81865Y121100D02*
X100565Y102400D01*
X92953Y96640D02*
X98154Y101841D01*
X95640Y93953D02*
X100287Y98600D01*
X95711Y92383D02*
X101928Y98600D01*
X79648Y171400D02*
X116413Y134635D01*
X76820Y171400D02*
X114050Y134170D01*
X73992Y171400D02*
X112560Y132832D01*
X66003Y124900D02*
X112503Y171400D01*
X71163D02*
X111850Y130714D01*
X68831Y124900D02*
X115331Y171400D01*
X80145Y124900D02*
X126645Y171400D01*
X77317Y124900D02*
X123817Y171400D01*
X79037Y121100D02*
X98227Y101910D01*
X74488Y124900D02*
X120988Y171400D01*
X71660Y124900D02*
X118160Y171400D01*
X76208Y121100D02*
X96811Y100498D01*
X62758Y157178D02*
X93475Y126461D01*
X62156Y154952D02*
X90611Y126496D01*
X62261Y124900D02*
X88753D01*
X60657Y153622D02*
X89004Y125275D01*
X58105Y153346D02*
X86551Y124900D01*
X59812Y96082D02*
X84830Y121100D01*
X73380D02*
X95397Y99084D01*
X70552Y121100D02*
X93982Y97669D01*
X67723Y121100D02*
X92061Y96762D01*
X60500Y121100D02*
X88753D01*
X64895D02*
X89884Y96111D01*
X59850Y171400D02*
X140531Y90718D01*
X62869Y82168D02*
X111904Y131203D01*
X59634Y76105D02*
X112246Y128717D01*
X57021Y171400D02*
X139117Y89304D01*
X54193Y171400D02*
X137580Y88013D01*
X51364Y171400D02*
X134920Y87844D01*
X62774Y93387D02*
X89540Y120153D01*
X62066Y121100D02*
X88586Y94580D01*
X61614Y75256D02*
X113522Y127164D01*
X59058Y121280D02*
X88325Y92012D01*
X58174Y85958D02*
X91488Y119273D01*
X1900Y161467D02*
X79840Y83527D01*
X1900Y158639D02*
X78426Y82113D01*
X32232Y125479D02*
X77012Y80699D01*
X1900Y169953D02*
X84083Y87770D01*
X1900Y167124D02*
X82669Y86356D01*
X1900Y164296D02*
X81254Y84941D01*
X61720Y95161D02*
X87659Y121100D01*
X62853Y92029D02*
X75598Y79285D01*
X61965Y90088D02*
X74183Y77870D01*
X28506Y76089D02*
X73517Y121100D01*
X30432Y75187D02*
X76345Y121100D01*
X32997Y190889D02*
X61708Y219600D01*
X34277D02*
X60875Y193002D01*
X33312Y188375D02*
X64536Y219600D01*
X31776Y192496D02*
X58880Y219600D01*
X31448D02*
X58069Y192979D01*
X28620Y219600D02*
X56479Y191742D01*
X34726Y186961D02*
X67365Y219600D01*
X19925Y208930D02*
X30595Y219600D01*
X20104Y211938D02*
X27767Y219600D01*
X25792D02*
X55741Y189651D01*
X18661Y216151D02*
X22110Y219600D01*
X17414Y217732D02*
X19282Y219600D01*
X19587Y214248D02*
X24938Y219600D01*
X29708Y193256D02*
X56051Y219600D01*
X17926Y204838D02*
X29502Y193262D01*
X16497Y203439D02*
X27349Y192587D01*
X37554Y184133D02*
X73022Y219600D01*
X36140Y185547D02*
X70193Y219600D01*
X22963D02*
X67363Y175200D01*
X17307Y219600D02*
X61706Y175200D01*
X19437Y214641D02*
X58878Y175200D01*
X20135Y219600D02*
X64535Y175200D01*
X59651Y185741D02*
X70192Y175200D01*
X48421D02*
X58993Y185772D01*
X61742Y186478D02*
X73020Y175200D01*
X43211Y178476D02*
X56483Y191748D01*
X46040Y175647D02*
X57043Y186651D01*
X44625Y177062D02*
X55917Y188353D01*
X33140Y188547D02*
X46487Y175200D01*
X33262Y189502D02*
X47564Y175200D01*
X19841Y208580D02*
X53221Y175200D01*
X19056Y206537D02*
X50393Y175200D01*
X20150Y211100D02*
X56050Y175200D01*
X30453Y185860D02*
X44354Y171959D01*
X30732Y160340D02*
X43353Y172960D01*
X28251Y160687D02*
X41938Y174375D01*
X28366Y185913D02*
X55622Y158657D01*
X15870Y219018D02*
X16453Y219600D01*
X1900Y179591D02*
X41909Y219600D01*
X1900Y185248D02*
X36252Y219600D01*
X1900Y188076D02*
X33424Y219600D01*
X1900Y182420D02*
X39081Y219600D01*
X14764Y202343D02*
X26067Y191040D01*
X1900Y193733D02*
X9562Y201396D01*
X12680Y201599D02*
X25913Y188366D01*
X1900Y190905D02*
X12570Y201575D01*
X1900Y176763D02*
X44737Y219600D01*
X1900D02*
X6123D01*
X3164D02*
X4338Y218426D01*
X1900Y216361D02*
X5139Y219600D01*
X1900Y219189D02*
X2311Y219600D01*
X1900Y215377D02*
Y219600D01*
Y199390D02*
X5349Y202839D01*
X1900Y202219D02*
X3768Y204086D01*
X1900Y196562D02*
X7252Y201913D01*
X1900Y218036D02*
X2939Y216997D01*
X1900Y205047D02*
X2482Y205629D01*
X1900Y195408D02*
X72408Y124900D01*
X10092Y201359D02*
X55346Y156105D01*
X1900Y192580D02*
X69580Y124900D01*
X1900Y171106D02*
X50394Y219600D01*
X1900Y173934D02*
X47566Y219600D01*
X1900Y168277D02*
X53223Y219600D01*
X1900Y137165D02*
X40524Y175789D01*
X1900Y139993D02*
X39110Y177203D01*
X1900Y178438D02*
X54779Y125558D01*
X1900Y142822D02*
X37696Y178617D01*
X1900Y189752D02*
X66752Y124900D01*
X1900Y156964D02*
X30625Y185688D01*
X1900Y159792D02*
X28111Y186003D01*
X1900Y154135D02*
X32039Y184274D01*
X1900Y162620D02*
X26504Y187224D01*
X1900Y165449D02*
X25743Y189293D01*
X1900Y186923D02*
X28157Y160667D01*
X1900Y148478D02*
X34867Y181446D01*
X1900Y181266D02*
X25332Y157835D01*
X1900Y145650D02*
X36281Y180032D01*
X1900Y184095D02*
X26337Y159658D01*
X1900Y151307D02*
X33453Y182860D01*
X61401Y159896D02*
X72905Y171400D01*
X59416Y160739D02*
X70077Y171400D01*
X48536D02*
X59178Y160758D01*
X32667Y156157D02*
X63923Y124900D01*
X32261Y125099D02*
X60936Y153774D01*
X45707Y171400D02*
X56952Y160156D01*
X32750Y156701D02*
X47449Y171400D01*
X31658Y154337D02*
X57398Y128597D01*
X32200Y158979D02*
X44831Y171610D01*
X29969Y128464D02*
X56104Y154599D01*
X29835Y153332D02*
X55678Y127488D01*
X31544Y127211D02*
X57776Y153443D01*
X31624Y90521D02*
X62203Y121100D01*
X31114Y84354D02*
X67860Y121100D01*
X29656Y85724D02*
X65031Y121100D01*
X31590Y82002D02*
X70688Y121100D01*
X60220Y89005D02*
X72769Y76456D01*
X62670Y83726D02*
X71355Y75042D01*
X59028Y78883D02*
X63511Y74400D01*
X31760Y123122D02*
X58788Y96094D01*
X31624Y93350D02*
X59601Y121326D01*
X31571Y96124D02*
X56997Y121551D01*
X28742Y96124D02*
X55435Y122818D01*
X30337Y121717D02*
X56848Y95205D01*
X27946Y121279D02*
X55765Y93460D01*
X31624Y88876D02*
Y96124D01*
X1900Y111709D02*
X61591Y171400D01*
X1900Y114537D02*
X58763Y171400D01*
X1900Y108880D02*
X64420Y171400D01*
X1900Y120194D02*
X53106Y171400D01*
X1900Y123022D02*
X50278Y171400D01*
X1900Y117366D02*
X55934Y171400D01*
X27211Y128534D02*
X55261Y156584D01*
X1900Y106052D02*
X67248Y171400D01*
X1900Y125851D02*
X29299Y153250D01*
X24376Y96124D02*
X31624D01*
X1900Y128679D02*
X27021Y153800D01*
X1900Y152982D02*
X26622Y128260D01*
X1900Y150154D02*
X25217Y126837D01*
X1900Y131508D02*
X25660Y155268D01*
X1900Y134336D02*
X25313Y157749D01*
X1900Y155810D02*
X28979Y128732D01*
X1900Y97567D02*
X26289Y121956D01*
X1900Y100395D02*
X25036Y123531D01*
X1900Y119041D02*
X24816Y96124D01*
X1900Y147325D02*
X24779Y124446D01*
X1900Y103224D02*
X24965Y126289D01*
X1900Y133183D02*
X58970Y76113D01*
X1900Y136011D02*
X55643Y82269D01*
X1900Y130354D02*
X56956Y75298D01*
X1900Y144497D02*
X60486Y85911D01*
X1900Y141668D02*
X57766Y85802D01*
X1900Y138840D02*
X56238Y84502D01*
X25914Y96124D02*
X54738Y124949D01*
X27119Y86016D02*
X29979Y88876D01*
X1900Y124698D02*
X30473Y96124D01*
X24376Y88876D02*
X31624D01*
X1900Y110556D02*
X26609Y85847D01*
X1900Y113384D02*
X24376Y90908D01*
X1900Y107727D02*
X25038Y84589D01*
X1900Y94738D02*
X28401Y121239D01*
X1900Y121869D02*
X27645Y96124D01*
X1900Y116212D02*
X24376Y93737D01*
X26408Y88876D02*
X29472Y85812D01*
X24376Y88876D02*
Y96124D01*
X1900Y99242D02*
X25778Y75364D01*
X1900Y104899D02*
X24376Y82422D01*
X1900Y102070D02*
X27849Y76121D01*
X100326Y57400D02*
X168664Y125738D01*
X98478Y58380D02*
X165836Y125738D01*
X103155Y57400D02*
X171493Y125738D01*
X92841Y58400D02*
X164738Y130297D01*
X90013Y58400D02*
X157489Y125876D01*
X95670Y58400D02*
X164738Y127468D01*
X107194Y98600D02*
X149894Y55900D01*
X104365Y98600D02*
X147065Y55900D01*
X110022Y98600D02*
X152722Y55900D01*
X99498Y97811D02*
X141408Y55900D01*
X98084Y96396D02*
X136328Y58152D01*
X101537Y98600D02*
X144237Y55900D01*
X108812Y57400D02*
X133068Y81656D01*
X105983Y57400D02*
X132351Y83767D01*
X96669Y94982D02*
X134194Y57458D01*
X88750Y58400D02*
X98200D01*
X95762Y93061D02*
X132845Y55978D01*
X99546Y57841D02*
X99987Y57400D01*
X109253D01*
X88750Y54600D02*
X97413D01*
X106111Y34900D02*
X212241Y141030D01*
X103282Y34900D02*
X211227Y142845D01*
X108939Y34900D02*
X214188Y140149D01*
X97625Y34900D02*
X188759Y126034D01*
X95111Y90884D02*
X132360Y53635D01*
X100454Y34900D02*
X191815Y126262D01*
X93580Y89586D02*
X131490Y51677D01*
X111768Y34900D02*
X132844Y55977D01*
X91012Y89325D02*
X130075Y50262D01*
X89598Y87911D02*
X128661Y48848D01*
X97413Y54600D02*
X97854Y54159D01*
X89296Y52026D02*
X91870Y54600D01*
X91797D02*
X111497Y34900D01*
X88644Y48546D02*
X94698Y54600D01*
X88337Y53895D02*
X89041Y54600D01*
X88968D02*
X108668Y34900D01*
X98109Y53944D02*
X115933Y36120D01*
X89336Y46409D02*
X97470Y54543D01*
X94625Y54600D02*
X114325Y34900D01*
X85824Y59869D02*
X154796Y128840D01*
X82996Y59869D02*
X148885Y125758D01*
X87984Y59199D02*
X155734Y126950D01*
X66415Y74400D02*
X120360Y128345D01*
X63586Y74400D02*
X115554Y126368D01*
X65302Y59145D02*
X104757Y98600D01*
X86770Y85083D02*
X112592Y59261D01*
X85356Y83669D02*
X110401Y58623D01*
X78285Y76597D02*
X96482Y58400D01*
X63888Y60559D02*
X92617Y89289D01*
X72846Y71159D02*
X91047Y89360D01*
X76870Y75183D02*
X93654Y58400D01*
X70713Y74400D02*
X88360Y92047D01*
X74042Y72355D02*
X86585Y59812D01*
X75456Y73769D02*
X90825Y58400D01*
X69243Y74400D02*
X88261Y93418D01*
X31503Y73430D02*
X79174Y121100D01*
X26834Y65932D02*
X82002Y121100D01*
X82032Y59869D02*
X85969D01*
X72610Y70958D02*
X83700Y59869D01*
X70140Y70600D02*
X81025Y59715D01*
X67311Y70600D02*
X79360Y58552D01*
X73699Y53400D02*
X116703Y96404D01*
X70959Y53488D02*
X114217Y96746D01*
X88184Y86497D02*
X127247Y47434D01*
X68130Y56317D02*
X110414Y98600D01*
X66716Y57731D02*
X107585Y98600D01*
X69545Y54902D02*
X112664Y98022D01*
X83941Y82254D02*
X108796Y57400D01*
X82527Y80840D02*
X105967Y57400D01*
X79699Y78012D02*
X100310Y57400D01*
X81113Y79426D02*
X103139Y57400D01*
X64483Y70600D02*
X78664Y56419D01*
X60375Y69051D02*
X76026Y53400D01*
X62058Y70196D02*
X78855Y53400D01*
X1900Y82271D02*
X82271Y1900D01*
X1900Y79443D02*
X79443Y1900D01*
X1900Y76614D02*
X76614Y1900D01*
X76527Y53400D02*
X78773Y55646D01*
X28122Y58878D02*
X85100Y1900D01*
X106939Y53600D02*
X120176Y40363D01*
X104110Y53600D02*
X118762Y38949D01*
X101282Y53600D02*
X117348Y37534D01*
X99200Y53600D02*
X109253D01*
X86312Y34900D02*
X105012Y53600D01*
X89140Y34900D02*
X107840Y53600D01*
X111492Y51875D02*
X121590Y41777D01*
X111701Y29176D02*
X113625Y31100D01*
X109640D02*
X111590Y29150D01*
X91969Y34900D02*
X109874Y52806D01*
X89336Y51404D02*
X105840Y34900D01*
X94797D02*
X111717Y51820D01*
X88561Y49350D02*
X103011Y34900D01*
X80655D02*
X99355Y53600D01*
X83483Y34900D02*
X102183Y53600D01*
X88241Y44014D02*
X97355Y34900D01*
X86280Y43146D02*
X94526Y34900D01*
X89267Y45816D02*
X100183Y34900D01*
X82032Y43132D02*
X85969D01*
X83466D02*
X91698Y34900D01*
X98326Y31100D02*
X127526Y1900D01*
X95738D02*
X117239Y23401D01*
X101154Y31100D02*
X130354Y1900D01*
X92669Y31100D02*
X121869Y1900D01*
X89841Y31100D02*
X119041Y1900D01*
X95498Y31100D02*
X124698Y1900D01*
X107052D02*
X128100Y22948D01*
X104224Y1900D02*
X125385Y23062D01*
X109880Y1900D02*
X130815Y22835D01*
X98567Y1900D02*
X119954Y23288D01*
X101395Y1900D02*
X122670Y23175D01*
X106811Y31100D02*
X109796Y28116D01*
X103983Y31100D02*
X108817Y26266D01*
X87012Y31100D02*
X116212Y1900D01*
X81596D02*
X110796Y31100D01*
X81356D02*
X110556Y1900D01*
X84184Y31100D02*
X113384Y1900D01*
X90081D02*
X110497Y22316D01*
X92910Y1900D02*
X112756Y21746D01*
X84425Y1900D02*
X108824Y26299D01*
X87253Y1900D02*
X109147Y23794D01*
X70684Y44600D02*
X80384Y34900D01*
X79169Y44600D02*
X79590Y44179D01*
X73512Y44600D02*
X83212Y34900D01*
X77826D02*
X86059Y43133D01*
X76341Y44600D02*
X86041Y34900D01*
X79711Y44058D02*
X88869Y34900D01*
X64747D02*
X114713D01*
X72170D02*
X80683Y43413D01*
X74998Y34900D02*
X83230Y43132D01*
X76998Y49600D02*
X78198Y48400D01*
X74356D02*
X75556Y49600D01*
X77184Y48400D02*
X78384Y49600D01*
X70260D02*
X79250D01*
X71047Y53400D02*
X79250D01*
X74169Y49600D02*
X75369Y48400D01*
X67856Y44600D02*
X77556Y34900D01*
X66513D02*
X76213Y44600D01*
X69341Y34900D02*
X79041Y44600D01*
X44787Y48400D02*
X79250D01*
X44000Y44600D02*
X79250D01*
X73111Y1900D02*
X102311Y31100D01*
X72870D02*
X102070Y1900D01*
X75699Y31100D02*
X104899Y1900D01*
X70042Y31100D02*
X99242Y1900D01*
X67454D02*
X96654Y31100D01*
X70282Y1900D02*
X99482Y31100D01*
X78527D02*
X107727Y1900D01*
X75939D02*
X105139Y31100D01*
X78768Y1900D02*
X107968Y31100D01*
X64747D02*
X115500D01*
X1900Y1900D02*
X248100D01*
X58969D02*
X88169Y31100D01*
X56140Y1900D02*
X85340Y31100D01*
X61797Y1900D02*
X90997Y31100D01*
X50483Y1900D02*
X79683Y31100D01*
X47655Y1900D02*
X76855Y31100D01*
X53312Y1900D02*
X82512Y31100D01*
X64626Y1900D02*
X93826Y31100D01*
X64607Y30878D02*
X93585Y1900D01*
X67213Y31100D02*
X96413Y1900D01*
X60437Y29391D02*
X87928Y1900D01*
X63074Y29583D02*
X90756Y1900D01*
X62562Y81006D02*
X69168Y74400D01*
X62346D02*
X70713D01*
X61261Y79478D02*
X66340Y74400D01*
X60678Y65835D02*
X65443Y70600D01*
X62346D02*
X71500D01*
X62882Y62382D02*
X71100Y70600D01*
X62238Y64566D02*
X68272Y70600D01*
X62238Y64566D02*
X68272Y70600D01*
X31624Y89316D02*
X56320Y64620D01*
X32701Y60486D02*
X55802Y83586D01*
X34116Y59071D02*
X55987Y80943D01*
X31624Y94973D02*
X60832Y65766D01*
X31624Y92145D02*
X57907Y65862D01*
X31614Y62227D02*
X58373Y88986D01*
X57856Y65842D02*
X62615Y70600D01*
X36944Y56243D02*
X59592Y78891D01*
X35530Y57657D02*
X57314Y79442D01*
X62525Y64072D02*
X73198Y53400D01*
X62786Y61661D02*
X71047Y53400D01*
X60099Y58974D02*
X68914Y50159D01*
X31312Y83972D02*
X66884Y48400D01*
X31347Y81109D02*
X64056Y48400D01*
X59237Y58876D02*
X69712Y48400D01*
X60214D02*
X65443Y53629D01*
X57385Y48400D02*
X64029Y55044D01*
X63042Y48400D02*
X66857Y52215D01*
X51728Y48400D02*
X61201Y57872D01*
X54557Y48400D02*
X62615Y56458D01*
X41187Y52000D02*
X58216Y69029D01*
X39772Y53415D02*
X56504Y70146D01*
X42601Y50586D02*
X55918Y63903D01*
X38358Y54829D02*
X55655Y72125D01*
X31089Y64396D02*
X47085Y48400D01*
X31621Y72349D02*
X55570Y48400D01*
X46072D02*
X57194Y59522D01*
X46072Y48400D02*
X57194Y59522D01*
X48900Y48400D02*
X59377Y58877D01*
X44015Y49172D02*
X55924Y61081D01*
X31526Y61661D02*
X44787Y48400D01*
X31037Y64478D02*
X56599Y90040D01*
X29520Y65790D02*
X55678Y91947D01*
X29237Y88876D02*
X55635Y62477D01*
X1900Y127526D02*
X55811Y73615D01*
X1900Y90756D02*
X26753Y65903D01*
X1900Y63626D02*
X27150Y88876D01*
X27922Y78876D02*
X58399Y48400D01*
X26022Y69463D02*
X29896Y65589D01*
X30089Y79538D02*
X61227Y48400D01*
X1900Y52312D02*
X28498Y78910D01*
X1900Y66454D02*
X24376Y88929D01*
X1900Y69282D02*
X24376Y91758D01*
X1900Y87928D02*
X25123Y64705D01*
X1900Y96413D02*
X24589Y73725D01*
X1900Y72111D02*
X24376Y94586D01*
X1900Y93585D02*
X24963Y70522D01*
X1900Y55140D02*
X26146Y79386D01*
X1900Y57969D02*
X24776Y80844D01*
X1900Y49483D02*
X24411Y71994D01*
X1900Y85100D02*
X24378Y62622D01*
X1900Y60797D02*
X24484Y83381D01*
X30864Y70278D02*
X52742Y48400D01*
X29225Y69089D02*
X49913Y48400D01*
X28839Y58974D02*
X42654Y45159D01*
X1900Y73786D02*
X73786Y1900D01*
X1900Y70957D02*
X70957Y1900D01*
X1900Y68129D02*
X68129Y1900D01*
X1900Y21199D02*
X34257Y53556D01*
X1900Y24027D02*
X32843Y54970D01*
X1900Y53987D02*
X53987Y1900D01*
X1900Y26856D02*
X31429Y56384D01*
X1900Y56815D02*
X56815Y1900D01*
X1900Y65301D02*
X30558Y36642D01*
X1900Y40998D02*
X24568Y63666D01*
X1900Y62472D02*
X28777Y35596D01*
X1900Y43826D02*
X27070Y68997D01*
X1900Y46655D02*
X25313Y70068D01*
X1900Y15211D02*
Y206623D01*
Y32513D02*
X28273Y58886D01*
X1900Y35341D02*
X26022Y59463D01*
X1900Y29684D02*
X30014Y57799D01*
X1900Y38170D02*
X24710Y60979D01*
X1900Y59644D02*
X27810Y33734D01*
X71341Y49600D02*
X72541Y48400D01*
X71527D02*
X72727Y49600D01*
X65871Y48400D02*
X68272Y50801D01*
X68699Y48400D02*
X69928Y49629D01*
X64299Y35514D02*
X73384Y44600D01*
X62564Y36608D02*
X70556Y44600D01*
X65027D02*
X74727Y34900D01*
X59370Y44600D02*
X69070Y34900D01*
X56542Y44600D02*
X66242Y34900D01*
X62199Y44600D02*
X71899Y34900D01*
X34965Y34465D02*
X45100Y44600D01*
X33714Y36042D02*
X42745Y45074D01*
X31604Y36761D02*
X41328Y46485D01*
X33714Y36042D02*
X42745Y45074D01*
X53713Y44600D02*
X61551Y36762D01*
X50885Y44600D02*
X59378Y36107D01*
X48057Y44600D02*
X58083Y34574D01*
X36341Y1900D02*
X65541Y31100D01*
X25027Y1900D02*
X67727Y44600D01*
X22199Y1900D02*
X64899Y44600D01*
X35142Y32058D02*
X65301Y1900D01*
X41998D02*
X71198Y31100D01*
X39170Y1900D02*
X68370Y31100D01*
X44826Y1900D02*
X74026Y31100D01*
X33513Y1900D02*
X60899Y29286D01*
X34096Y30277D02*
X62472Y1900D01*
X45228Y44600D02*
X57891Y31937D01*
X35032Y31703D02*
X47928Y44600D01*
X20644Y11659D02*
X53585Y44600D01*
X20388Y14232D02*
X50757Y44600D01*
X19755Y7941D02*
X56414Y44600D01*
X30684Y1900D02*
X58986Y30201D01*
X27856Y1900D02*
X57891Y31936D01*
X32234Y29310D02*
X59644Y1900D01*
X20439Y9992D02*
X28531Y1900D01*
X20629Y12630D02*
X31359Y1900D01*
X13369Y21355D02*
X39914Y47899D01*
X10835Y21649D02*
X38500Y49313D01*
X15421Y20578D02*
X27739Y32896D01*
X7249Y20891D02*
X37085Y50728D01*
X1900Y18371D02*
X35671Y52142D01*
X1900Y51158D02*
X51158Y1900D01*
X18532Y18032D02*
X30035Y29535D01*
X17127Y19455D02*
X28458Y30786D01*
X19636Y16307D02*
X32797Y29468D01*
X17127Y19455D02*
X28458Y30786D01*
X1900Y25703D02*
X6877Y20725D01*
X1900Y22874D02*
X5121Y19653D01*
X1900Y20046D02*
X3670Y18276D01*
X1900Y31359D02*
X11630Y21629D01*
X1900Y28531D02*
X8992Y21439D01*
X1900Y34188D02*
X15611Y20477D01*
X1900Y4228D02*
X3545Y5873D01*
X1900Y4228D02*
X3545Y5873D01*
X1900Y5904D02*
X5904Y1900D01*
X1900Y17217D02*
X2517Y16600D01*
X1900Y7057D02*
X2422Y7579D01*
X16542Y1900D02*
X59242Y44600D01*
X1900Y39845D02*
X39845Y1900D01*
X19371D02*
X62071Y44600D01*
X1900Y48330D02*
X48330Y1900D01*
X1900Y45502D02*
X45502Y1900D01*
X1900Y42673D02*
X42673Y1900D01*
X19477Y16611D02*
X34188Y1900D01*
X18653Y6121D02*
X22874Y1900D01*
X19725Y7878D02*
X25703Y1900D01*
X1900Y37016D02*
X37016Y1900D01*
X17276Y4670D02*
X20046Y1900D01*
X13714D02*
X15059Y3245D01*
X5228Y1900D02*
X6693Y3365D01*
X15600Y3517D02*
X17217Y1900D01*
X1900Y3075D02*
X3075Y1900D01*
X1900D02*
Y8789D01*
X2400Y1900D02*
X4968Y4468D01*
X11110Y2351D02*
X11560Y1900D01*
X10885D02*
X11341Y2356D01*
X13586Y2703D02*
X14389Y1900D01*
X7700Y2932D02*
X8732Y1900D01*
X8057D02*
X8768Y2612D01*
D14*
X238000Y98500D02*
X241953D01*
X238000D02*
Y102453D01*
Y94547D02*
Y98500D01*
X234047D02*
X238000D01*
X216000Y40500D02*
X219953D01*
X216000Y36547D02*
Y40500D01*
X188000Y41000D02*
Y43968D01*
X158500Y54500D02*
X162256D01*
X158500D02*
Y58256D01*
Y50744D02*
Y54500D01*
X136500Y54000D02*
Y57756D01*
X132744Y54000D02*
X136500D01*
Y50244D02*
Y54000D01*
X92000Y119638D02*
Y123000D01*
Y126362D01*
Y123000D02*
X95362D01*
X59500Y189500D02*
X62862D01*
X59500D02*
Y192862D01*
Y186138D02*
Y189500D01*
X56138D02*
X59500D01*
X59000Y157000D02*
Y160362D01*
X55638Y157000D02*
X59000D01*
X62362D01*
X59000Y153638D02*
Y157000D01*
X58500Y125000D02*
X61862D01*
X58500D02*
Y128362D01*
X55138Y125000D02*
X58500D01*
Y121638D02*
Y125000D01*
X59260Y82500D02*
X62484D01*
X59260D02*
Y85724D01*
X56035Y82500D02*
X59260D01*
Y79276D02*
Y82500D01*
X58138Y33000D02*
X61500D01*
Y36362D01*
Y29638D02*
Y33000D01*
X188500Y30500D02*
X216000D01*
X188000Y31000D02*
X188500Y30500D01*
X158000Y54000D02*
X158500Y54500D01*
X136500Y54000D02*
X158000D01*
X29500Y189500D02*
X45700Y173300D01*
X176700D01*
X190000Y160000D01*
X60500Y123000D02*
X92000D01*
X58500Y125000D02*
X60500Y123000D01*
X216000Y76500D02*
X238000Y98500D01*
X216000Y40500D02*
Y76500D01*
X202500Y40500D02*
X216000D01*
X188000Y41000D02*
X202500Y40500D01*
X152500Y100000D02*
X156500D01*
X136500Y84000D02*
X152500Y100000D01*
X99200Y55500D02*
X112500D01*
X98200Y56500D02*
X99200Y55500D01*
X84000Y56500D02*
X98200D01*
X136500Y24500D02*
X158500D01*
X112500Y25500D02*
X136500Y24500D01*
X99500Y100500D02*
X116000D01*
X92000Y93000D02*
X99500Y100500D01*
X133300Y129500D02*
X148500D01*
X116000Y130500D02*
X133300Y129500D01*
X164600Y133400D02*
X168500Y129500D01*
X152400Y133400D02*
X164600D01*
X148500Y129500D02*
X152400Y133400D01*
X208500Y148500D02*
X216500D01*
X190000Y130000D02*
X208500Y148500D01*
X59260Y72500D02*
X71500D01*
X92000Y93000D01*
X172000Y41000D02*
X188000D01*
X158500Y54500D02*
X172000Y41000D01*
X70260Y51500D02*
X84000D01*
X59260Y62500D02*
X70260Y51500D01*
X170000Y36000D02*
X188000D01*
X158500Y24500D02*
X170000Y36000D01*
X44000Y46500D02*
X84000D01*
X28000Y62500D02*
X44000Y46500D01*
X61500Y33000D02*
X115500D01*
X136500Y54000D01*
X216500Y153500D02*
Y157000D01*
X213500Y160000D02*
X216500Y157000D01*
X190000Y160000D02*
X213500D01*
D25*
X238000Y108500D02*
D03*
X216000Y30500D02*
D03*
D26*
X238000Y98500D02*
D03*
X216000Y40500D02*
D03*
D27*
X10500Y211000D02*
D03*
X236500Y208500D02*
D03*
X236000Y12500D02*
D03*
X11000Y12000D02*
D03*
D28*
X92000Y123000D02*
D03*
Y93000D02*
D03*
X158500Y129500D02*
D03*
X148500D02*
D03*
X59500Y189500D02*
D03*
X29500D02*
D03*
X112500Y25500D02*
D03*
Y55500D02*
D03*
X156500Y100000D02*
D03*
X186500D02*
D03*
X61500Y33000D02*
D03*
X31500D02*
D03*
X59000Y157000D02*
D03*
X29000D02*
D03*
X58500Y125000D02*
D03*
X28500D02*
D03*
D29*
X168500Y129500D02*
D03*
D30*
X116000Y130500D02*
D03*
Y100500D02*
D03*
X190000Y160000D02*
D03*
Y130000D02*
D03*
X136500Y54000D02*
D03*
Y84000D02*
D03*
X158500Y24500D02*
D03*
Y54500D02*
D03*
D31*
X216500Y143500D02*
D03*
Y153500D02*
D03*
X84000Y46500D02*
D03*
Y56500D02*
D03*
X188000Y31000D02*
D03*
Y41000D02*
D03*
D32*
X216500Y148500D02*
D03*
X84000Y51500D02*
D03*
X188000Y36000D02*
D03*
D33*
X28000Y92500D02*
D03*
D34*
Y82500D02*
D03*
Y72500D02*
D03*
Y62500D02*
D03*
X59260D02*
D03*
Y72500D02*
D03*
Y82500D02*
D03*
Y92500D02*
D03*
M02*
