M48
;Layer_Color=9474304
;FILE_FORMAT=2:5
INCH,LZ
;TYPE=PLATED
T1F00S00C0.02756
T2F00S00C0.03071
T3F00S00C0.03346
T4F00S00C0.03543
T5F00S00C0.11811
%
T01
X00315Y0033
X00615
X01125Y00255
Y00555
X0092Y0093
Y0123
X00585Y0125
X0059Y0157
X00595Y01895
X01485Y01295
X01585
X01685
X01565Y01
X01865
X00285Y0125
X0029Y0157
X00295Y01895
T02
X005926Y00625
Y00725
Y00825
Y00925
X0028
Y00825
Y00725
Y00625
T03
X01585Y00245
Y00545
X01365Y0054
Y0084
X0116Y01005
Y01305
X019Y013
Y016
T04
X0084Y00465
Y00515
X0188Y0041
Y0036
Y0031
X0216Y00305
Y00405
X0238Y00985
Y01085
X02165Y01435
Y01485
Y01535
X0084Y00565
T05
X0011Y0012
X0236Y00125
X02365Y02085
X00105Y0211
M30
